<?xml version="1.0" encoding="utf-8"?>
<!-- Generator: Adobe Illustrator 18.1.1, SVG Export Plug-In . SVG Version: 6.00 Build 0)  -->
<svg version="1.1" id="Layer_1" xmlns="http://www.w3.org/2000/svg" xmlns:xlink="http://www.w3.org/1999/xlink" x="0px" y="0px"
	 width="400.1px" height="310.4px" viewBox="0 0 400.1 310.4" enable-background="new 0 0 400.1 310.4" xml:space="preserve">
<g>
	<g>
		<path fill="#FFFFFF" stroke="#FFFFFF" stroke-width="3.2186" d="M68.3,47.5v51.6H1.6v114.5h43.8c0,0,99.7,98.2,155.8,95.1
			c61.2-3.3,152.7-95.1,152.7-95.1h44.4l0.1-114.7l-67.6-0.1V47.1c0,0-86.3,0.5-130.8-44.1c-0.2-0.2-0.7-0.2-0.9,0
			C156.8,46.1,68.3,47.5,68.3,47.5z"/>
	</g>
	<line fill="none" x1="61.2" y1="222.2" x2="61.2" y2="222.2"/>
	<path d="M199.7,10c21.4,22,69,38.4,126.7,42.4l0,36.9c-9.1,1.2-15.8,7.5-15.8,15.1c0,0.3,0,0.7,0,1l81.1,0v102.2l-76.8,0
		c0,0.1,0,0.3,0,0.4c0,7.6,10.4,13.8,23.4,14.2c-38.9,35.5-104.1,82.6-138.6,81.8c-34.5,0.8-99.8-46.4-138.6-81.8
		c13-0.4,23.4-6.6,23.4-14.2c0-0.1,0-0.3,0-0.4l-76.8,0V105.4l81.1,0c0-0.3,0-0.6,0-1c0-7.6-6.7-14-15.8-15.1l0-36.9
		C130.7,48.4,178.3,32,199.7,10L199.7,10z"/>
	<path fill="#EF7D00" d="M308.2,67.3c-48.1-5.1-85.8-18.2-108.6-36c-22.8,17.7-60.4,30.9-108.5,36l0,11.9
		c9.2,4.8,15.4,14.1,15.4,24.8c0,0.5,0,0.9,0,1.4h-8.1c-0.2-9.5-6.4-17.6-15.2-20.9l0-23.7c52.8-5,93.5-19.6,116.4-39.3
		c22.9,19.7,63.7,34.3,116.5,39.3l0,23.7c-8.8,3.3-15,11.4-15.2,20.9h-8.1c0-0.4,0-0.9,0-1.4c0-10.7,6.2-20,15.4-24.8V67.3z"/>
	<path fill="#EF7D00" d="M103.5,207.5c0,0.6,0.1,1.1,0.1,1.7c0,7.4-3.8,14-9.8,18.6c34,28.2,79.3,58,106,58.8h-0.6
		c26.7-0.8,72-30.6,106-58.8c-6-4.6-9.8-11.2-9.8-18.6c0-0.6,0-1.1,0.1-1.7l8,0c0.5,8.9,6.5,16.5,14.9,18.8
		c-35.4,31.1-89.2,68.7-118.5,68c-0.2,0-0.4,0-0.6,0h0.3c-0.2,0-0.4,0-0.6,0c-29.2,0.7-83.1-37-118.5-68c8.4-2.4,14.4-9.9,14.9-18.8
		L103.5,207.5z"/>
	<polygon fill="#EF7D00" points="138.3,207.3 148.9,207.3 154.2,222.6 154.9,222.6 161.3,207.3 172,207.3 158.5,234.7 158.5,262.8 
		148.8,256.9 148.8,234.9 	"/>
	<polygon fill="#EF7D00" points="124,105.4 115,105.4 115,73.1 123.8,71.5 130.5,85.8 130.8,85.8 137.5,68.3 147,66.1 147,105.4 
		137.9,105.4 137.9,91.2 137.6,91.2 131.4,105.5 131,105.5 124.2,92.4 124,92.4 	"/>
	<polygon fill="#EF7D00" points="204.6,55 204.6,105.4 194.5,105.4 194.5,55.2 183.1,60.7 183,50.3 199.8,41.4 217,50.2 217,60.9 	
		"/>
	<path fill="#EF7D00" d="M116.1,235.1l22.9,15.8v-11.3l-0.3-0.1l-13.7-9.6l-0.8-0.5c-0.6-0.3-1-0.9-1-1.6v-1v-8.2v-0.7
		c0-1,0.8-1.7,1.8-1.7h0.6l9.7,0l0-8.9l-14.7,0c-4,0-7.3,3.2-7.3,7.3v14.8C113.2,231.7,114.4,233.8,116.1,235.1z"/>
	<path fill="#EF7D00" d="M198.1,270.2l-9.3-3.6l-3.5-1.4c-1.2-0.5-2.1-1.6-2.1-3v-42.8c0-1.8,1.4-3.2,3.2-3.2h2.8h6.6h2.2v-8.9
		h-17.6c-4,0-7.3,3.2-7.3,7.3v50.9c0,2.4,1.1,4.5,2.9,5.8l0,0c1.5,1.4,5.6,3.5,21.9,9.1V270.2z"/>
	<path fill="#EF7D00" d="M212.9,207.3h-10l0,72.6c6.9-0.8,14.8-3.3,23.3-7l0-9.6l-13.3,4.4V207.3z"/>
	<path fill="#EF7D00" d="M252.2,216.2v-8.9h-16.5c-4,0-7.3,3.2-7.3,7.3v47.5c0.2,10,9.3,4.2,9.3,4.2l14.6-8.3v-10.7l-10.6,6.3
		c-4.1,2.5-3.3-3.1-3.3-3.1V247v-3.7v-5.8H249v-8.5h-10.5v-8.2l-0.1-1.4c0-1.8,1.4-3.2,3.2-3.2H252.2z"/>
	<path fill="#EF7D00" d="M248.4,69.6v4.1v12.3v11.3c0,2.4-1.1,4.5-2.9,5.8l0,0c-1.5,1.4-3.5,2.2-6,2.2h-2.8h-2.8h-6.5
		c-2.5,0-4.5-0.8-6-2.2l0,0c-1.8-1.3-2.9-3.4-2.9-5.8V61.8c0-4,3.5-8.3,7.3-7.3l18,8.2C246.3,63.7,248.4,66.4,248.4,69.6z
		 M226.9,86.6v7.4c0,0.9,0.7,1.6,1.6,1.6h9.3c0.9,0,1.6-0.7,1.6-1.6v-8v-9.3v-5.1c0-0.9-0.7-1.2-1.6-1.6l-9.3-4.7
		c-0.8-0.3-1.6,0.7-1.6,1.6V86.6z"/>
	<path fill="#EF7D00" d="M156.9,62.8l18-8.2c3.8-1,7.3,3.2,7.3,7.3v35.5c0,2.4-1.1,4.5-2.9,5.8l0,0c-1.5,1.4-3.5,2.2-6,2.2h-6.5
		h-2.9H161c-2.5,0-4.5-0.8-6-2.2l0,0c-1.8-1.3-2.9-3.4-2.9-5.8V86.1V73.8v-4.1C152,66.4,154.1,63.7,156.9,62.8z M173.5,67
		c0-0.9-0.7-1.8-1.6-1.6l-9.3,4.7c-0.8,0.3-1.6,0.7-1.6,1.6v5.1v9.3v8c0,0.9,0.7,1.6,1.6,1.6h9.3c0.9,0,1.6-0.7,1.6-1.6v-7.4V67z"/>
	<path fill="#EF7D00" d="M268.7,216.2c-0.9,0-1.6,0.7-1.6,1.6v2.1c0,0.9,0.7,1.6,1.6,1.6h10.7c3.1,0,5.6,2.4,5.6,5.4v7.8
		c-0.6,4.5-27.7,20.1-27.7,20.1l-0.1-10.6l11.3-6.7c11.6-6.9,2.8-6.7,2.8-6.7h-1.2h-5.4h-2.3c-2.9,0-5.3-2.3-5.3-5.2v-13.1
		c0-2.9,2.6-5.2,5.9-5.2l1.8,0.1h19.4v8.9H268.7z"/>
	<path fill="#EF7D00" d="M263.9,95.6v9.7h-8.8V66.3l24.9,5.6c3,0.7,5.3,3.3,5.3,6.5l0,8.4c0,2.5-1.8,4.5-4.1,4.9
		c2.3,0.4,4.1,2.5,4.1,4.9v8.7h-9.1v-5.6v-1.1c0-1.7-1.4-3-3.2-3H263.9z M274.7,86.7c0.9,0,1.6-0.7,1.6-1.6v-4.5
		c0-0.9-0.7-1.6-1.6-1.6L264,77v9.7H274.7z"/>
	<path fill="#EF7D00" d="M18.8,197.3v-81.7h361.9v81.7H18.8z M372.8,189.4v-65.9H26.6v65.9H372.8z"/>
	<polygon fill="#FFFFFF" points="44.6,150.6 44.6,129.9 36.6,129.9 36.6,183 44.6,183 44.6,160.6 50.7,160.6 50.7,182.9 58.7,183 
		58.7,129.9 50.7,129.9 50.7,150.6 	"/>
	<polygon fill="#FFFFFF" points="127.7,183 127.7,174.1 119.8,174.1 119.8,129.9 111.8,129.9 111.8,183 	"/>
	<polygon fill="#FFFFFF" points="145.7,183 145.7,174.8 137.6,174.8 137.6,159.3 145.7,159.3 145.7,151.2 137.6,151.2 137.6,138.1 
		145.7,138.1 145.7,129.9 129.6,129.9 129.6,183 	"/>
	<rect x="168.8" y="152.4" fill="#FFFFFF" width="14.3" height="7.5"/>
	<polygon fill="#FFFFFF" points="238.3,183 246.6,183 254,129.9 245.9,129.9 242.4,159.6 242.3,159.6 239.6,129.9 231.1,129.9 	"/>
	<rect x="255.7" y="129.9" fill="#FFFFFF" width="8" height="53"/>
	<polygon fill="#FFFFFF" points="347.6,183 347.6,153.5 347.7,153.5 352.9,183 362.8,183 362.8,129.9 354.8,129.9 354.8,153.2 
		354.7,153.2 350,129.9 339.5,129.9 339.5,183 	"/>
	<polygon fill="#FFFFFF" points="154.5,183 162.5,183 162.5,160.5 171,129.9 162.4,129.9 158.5,146.3 155.2,129.9 146.6,129.9 
		154.5,160.5 	"/>
	<line fill="none" x1="304.2" y1="165.8" x2="304.2" y2="165.8"/>
	<path fill="#FFFFFF" d="M312,169.8v4.9l0,0.8v0.1c-0.1,4.8-4.7,8.7-10.4,8.7c-5.8,0-10.4-3.9-10.5-8.7l0-1.2v-11.7h7.9v8.8
		c0,1.8,1.2,3.3,2.6,3.3c1.4,0,2.6-1.5,2.6-3.3l0.1-2.6c0-2.1,0.6-6.7-5.4-9.8c-9.7-4.9-7.8-14.3-7.8-17.9l0-1l0-2.7l0-1
		c0.1-4.8,4.7-8.7,10.5-8.7c5.8,0,10.4,3.9,10.4,8.7V148l-7.8,0v-7.7c0-1.8-1.6-3.3-3-3.3c-1.4,0-2.6,1.5-2.6,3.3v3.9v0.5
		c0,4.5,4.4,7,9.3,10.9C312.9,159.6,312,166.6,312,169.8z"/>
	<path fill="#FFFFFF" d="M336.4,136.6v37.1v1.9c-0.1,4.8-4.7,8.7-10.4,8.7c-5.8,0-10.4-3.9-10.5-8.7l0-1.2v-36.8l0-1
		c0.1-4.8,4.7-8.7,10.5-8.7C331.8,128,336.4,131.8,336.4,136.6z M326,174.8c1.4,0,2.6-1.5,2.6-3.3v-31.3c0-1.8-1.2-3.3-2.6-3.3
		c-1.4,0-2.6,1.5-2.6,3.3v31.3C323.3,173.3,324.5,174.8,326,174.8z"/>
	<path fill="#FFFFFF" d="M280.6,130c4,0,7.3,3.2,7.3,7.3v37.7c0,2.4-1.1,4.5-2.9,5.8l0,0c-1.5,1.4-3.5,2.2-6,2.2h-11.5v-53
		L280.6,130z M280.1,170.5v-29.3c0-1.8-0.9-3.2-2.1-3.2l-0.9,0h-1.7v35.6h2.6C279.2,173.7,280.1,172.3,280.1,170.5z"/>
	<path fill="#FFFFFF" d="M209.1,182.9l6-53H227l6.5,53h-8.1l-1.9-13h-4.4l-1.9,13L209.1,182.9z M221,142.7L221,142.7l-1.9,17.2h3.5
		L221,142.7z"/>
	<path fill="#FFFFFF" d="M200.2,130c4,0,7.3,3.2,7.3,7.3v37.7c0,2.4-1.2,4.5-2.9,5.8l0,0c-1.5,1.4-3.5,2.2-6,2.2H187v-53L200.2,130z
		 M199.7,170.5v-29.3c0-1.8-0.9-3.2-2.1-3.2l-0.9,0H195v35.6h2.6C198.7,173.7,199.7,172.3,199.7,170.5z"/>
	<path fill="#FFFFFF" d="M60.4,182.9l6-53h11.9l6.5,53h-8.1l-1.9-13h-4.4l-1.9,13L60.4,182.9z M72.4,142.7L72.4,142.7l-1.9,17.2h3.5
		L72.4,142.7z"/>
	<path fill="#FFFFFF" d="M101.6,182.9c-0.9,0-1.6-0.7-1.6-1.6v-9.5l0-0.6c0-5.5-0.1-9-5-9h-0.8V183h-8.1v-53h14.2
		c4.8,0,7.9,4.8,7.9,13.9c0,5.5-1.1,9.8-3.9,11.9c1.7,1.1,3.8,4,3.8,10c0,3.4,0.1,15,0.8,17.2L101.6,182.9z M94.2,152.8h2.1
		c2.8,0,3.6-4.4,3.6-7.8c0-5.1-1.4-7-3.6-7h-2.1V152.8z"/>
	<path d="M335.9,214.2V213h0.8c0.4,0,1,0,1,0.6c0,0.6-0.3,0.7-0.8,0.7H335.9z M335.9,215h0.5l1.2,2.1h1.3l-1.3-2.2
		c0.7,0,1.2-0.4,1.2-1.3c0-1.1-0.8-1.5-2.1-1.5h-1.9v5h1.1V215z M341.4,214.6c0-2.9-2.2-4.7-4.7-4.7c-2.5,0-4.7,1.7-4.7,4.7
		c0,2.9,2.2,4.7,4.7,4.7C339.2,219.3,341.4,217.6,341.4,214.6z M340.1,214.6c0,2.1-1.5,3.6-3.3,3.6v0c-1.9,0-3.4-1.4-3.4-3.6
		c0-2.1,1.5-3.6,3.4-3.6C338.5,211.1,340.1,212.5,340.1,214.6z"/>
	<path fill="none" stroke="#FFFFFF" stroke-width="1.44" d="M186.9,12.9c5.2-3.2,6.8-6,12.7-11.9c6.5,6.7,8,9.2,14.1,12.8"/>
</g>
</svg>
